<?xml version="1.0" standalone="no"?>
<!DOCTYPE svg PUBLIC "-//W3C//DTD SVG 1.1//EN" "http://www.w3.org/Graphics/SVG/1.1/DTD/svg11.dtd">
<svg t="1654349756465" class="icon" viewBox="0 0 1024 1024" version="1.1" xmlns="http://www.w3.org/2000/svg" p-id="1972" xmlns:xlink="http://www.w3.org/1999/xlink" width="32" height="32">
	<defs>
		<style type="text/css">
			@font-face { font-family: feedback-iconfont; src: url("//at.alicdn.com/t/font_1031158_u69w8yhxdu.woff2?t=1630033759944") format("woff2"), url("//at.alicdn.com/t/font_1031158_u69w8yhxdu.woff?t=1630033759944") format("woff"), url("//at.alicdn.com/t/font_1031158_u69w8yhxdu.ttf?t=1630033759944") format("truetype"); }
		</style>
	</defs>
	<path d="M815.576 708.747c-6.236 0-11.299 5.062-11.299 11.321l0 22.619c0 6.236 5.063 11.299 11.299 11.299 6.247 0 11.31-5.062 11.31-11.299l0-22.619C826.886 713.81 821.823 708.747 815.576 708.747zM816.684 776.758c-6.171-1.13-12.016 2.998-13.124 9.126-3.857 21.555-22.576 37.199-44.511 37.199l-89.903 0c-6.236 0-11.299 5.041-11.299 11.299s5.062 11.299 11.299 11.299l89.903 0c32.897 0 60.982-23.466 66.772-55.799C826.918 783.733 822.833 777.866 816.684 776.758zM779.137 103.147l-67.815 0L711.322 57.386c0-12.472-10.126-22.598-22.619-22.598-12.483 0-22.609 10.126-22.609 22.598l0 45.76L326.898 103.146l0-45.76c0-12.472-10.126-22.598-22.619-22.598-12.483 0-22.609 10.126-22.609 22.598l0 45.76-67.848 0c-74.812 0-135.674 60.862-135.674 135.674l0 565.315c0 74.833 60.862 135.674 135.674 135.674l565.315 0c74.812 0 135.674-60.841 135.674-135.674L914.811 238.82C914.811 164.009 853.949 103.147 779.137 103.147zM213.822 148.387l67.847 0 0 22.077c0 12.494 10.126 22.619 22.609 22.619 12.494 0 22.619-10.126 22.619-22.619l0-22.077 339.195 0 0 22.077c0 12.494 10.126 22.619 22.609 22.619 12.494 0 22.619-10.126 22.619-22.619l0-22.077 67.815 0c49.868 0 90.446 40.568 90.446 90.435l0 88.414-746.217 0 0-88.414C123.365 188.953 163.944 148.387 213.822 148.387zM779.137 894.593 213.822 894.593c-49.878 0-90.456-40.567-90.456-90.456l0-454.281 746.217 0 0 454.281C869.583 854.026 829.004 894.593 779.137 894.593zM527.348 435.104c3.846-2.402 10.104-2.763 18.765-1.083 9.14 2.408 14.795 5.898 16.96 10.465 2.402 5.537 2.402 12.032 0 19.486-8.66 25.023-22.136 53.169-40.415 84.44l74.336-9.021c-5.774-13.47-9.743-22.131-11.908-25.981-2.888-5.773-2.888-10.944 0-15.517 2.887-5.052 7.217-9.14 12.99-12.269 5.531-2.887 10.944-4.207 16.238-3.97 5.774 0.722 10.104 3.733 12.991 9.021 7.217 13.476 13.109 25.745 17.682 36.807 5.052 12.27 11.305 29.59 18.765 51.963 1.923 6.259 0.958 11.311-2.887 15.156-4.094 4.814-9.146 8.063-15.156 9.743-6.259 1.686-11.908 1.804-16.96 0.36-5.537-1.443-9.146-5.17-10.826-11.187-1.206-3.608-2.289-6.975-3.247-10.104l-125.578 17.321c-6.016 1.443-11.671 1.686-16.96 0.722-6.738-1.681-11.671-5.413-14.795-11.187-0.964-1.201-1.567-2.166-1.804-2.888-1.207 5.774-2.29 11.548-3.248 17.321-5.294 24.059-13.712 48.479-25.26 73.254-1.443 2.887-2.887 5.536-4.33 7.938l25.981 15.878c5.289 3.608 7.815 8.063 7.578 13.352 0 6.495-1.805 12.387-5.413 17.682-3.851 5.289-8.063 9.021-12.63 11.187-5.294 2.645-10.589 2.165-15.877-1.443l-24.177-15.156c-3.372 4.33-6.62 8.661-9.743 12.991-13.712 16.356-27.549 30.312-41.498 41.858-5.052 3.846-10.465 4.929-16.239 3.248-5.294-1.929-9.867-5.413-13.712-10.465-4.33-5.537-6.856-11.311-7.578-17.321-0.722-6.016 1.562-10.949 6.856-14.795 16.357-13.712 30.43-27.063 42.22-40.055l-24.538-15.517c-10.347-8.66-16.96-16.718-19.847-24.177-2.65-7.696-2.047-16.357 1.804-25.982 6.732-14.191 14.914-41.137 24.538-80.831 1.443-7.696 2.887-14.913 4.33-21.651l-15.877 0c-6.495 0-11.311-2.525-14.434-7.578-2.887-4.33-4.33-9.742-4.33-16.238 0-6.732 1.562-12.629 4.691-17.682 2.887-4.81 7.578-7.217 14.073-7.217l23.456 0c1.923-14.671 3.005-28.147 3.248-40.416 1.201-6.253 4.449-10.222 9.743-11.908 5.774-1.68 11.908-2.041 18.404-1.083 6.253 1.443 11.305 4.094 15.156 7.939 4.088 4.33 5.413 9.506 3.969 15.517-0.722 8.181-1.928 18.167-3.608 29.951l35.364 0c11.784 0.722 19.604 4.093 23.456 10.104 4.33 6.98 5.773 16.724 4.33 29.229-0.722 10.825-1.567 21.054-2.526 30.673 28.146-39.452 47.633-75.537 58.458-108.257C520.007 441.724 523.018 437.512 527.348 435.104zM387.336 552.021c-9.867 39.215-17.445 66.036-22.734 80.471-0.964 5.052-1.325 9.021-1.083 11.908 0.722 2.887 3.727 6.259 9.021 10.104l13.712 8.661c0.958-2.166 1.923-4.088 2.887-5.774 7.939-16.356 14.192-34.399 18.765-54.128 4.81-20.444 7.938-41.256 9.382-62.428-0.242-2.165-0.846-3.727-1.804-4.691-1.443-0.958-3.969-1.443-7.578-1.443l-17.321 0C389.377 540.237 388.295 546.011 387.336 552.021zM652.203 635.018l0 125.938c0 11.784-5.897 17.682-17.682 17.682L484.045 778.638c-11.79 0-17.682-5.897-17.682-17.682L466.363 635.018c0-11.784 5.892-17.682 17.682-17.682l150.476 0C646.306 617.336 652.203 623.233 652.203 635.018zM519.048 666.052c-2.649 0.242-3.969 1.567-3.969 3.969l0 55.933c0.236 2.645 1.562 3.97 3.969 3.97l80.471 0c2.645-0.242 3.97-1.567 3.97-3.97l0-55.933c-0.242-2.645-1.567-3.969-3.97-3.969L519.048 666.052z" p-id="1973" fill="#1296db">
	</path>
</svg>
