<?xml version="1.0" standalone="no"?>
<!DOCTYPE svg PUBLIC "-//W3C//DTD SVG 1.1//EN" "http://www.w3.org/Graphics/SVG/1.1/DTD/svg11.dtd">
<svg t="1653200557871" class="icon" viewBox="0 0 1024 1024" version="1.1" xmlns="http://www.w3.org/2000/svg" p-id="1096" xmlns:xlink="http://www.w3.org/1999/xlink" width="32" height="32">
    <defs>
        <style type="text/css">@font-face { font-family: feedback-iconfont; src: url("//at.alicdn.com/t/font_1031158_u69w8yhxdu.woff2?t=1630033759944") format("woff2"), url("//at.alicdn.com/t/font_1031158_u69w8yhxdu.woff?t=1630033759944") format("woff"), url("//at.alicdn.com/t/font_1031158_u69w8yhxdu.ttf?t=1630033759944") format("truetype"); }
</style>
    </defs>
    <path d="M545.97 343.23H361.25V299.4c0-10.19 8.27-18.46 18.46-18.46h147.81c10.19 0 18.46 8.27 18.46 18.46v43.83z" fill="#434A54" p-id="1097"></path>
    <path d="M194.95 465.28s68.31-129.13 258.65-129.13c190.37 0 258.3 129.19 258.3 129.19 221.33 0 221.33 0 221.33 202.85H158.48c-34.08 0.24-73.8-36.48-73.8-36.48V502.17l36.91-36.89h73.36z" fill="#FFCE54" p-id="1098"></path>
    <path d="M699.58 446.83C672.56 411.11 598.6 336.15 453.6 336.15c-145.05 0-219.25 74.98-246.33 110.68h492.31z" fill="#4FC2E9" p-id="1099"></path>
    <path d="M398.29 343.96h36.88v102.87h-36.88z" fill="#3BAFDA" p-id="1100"></path>
    <path d="M158.13 686.64c-40.07 0-81.39-37.15-85.96-41.4-3.78-3.48-5.94-8.4-5.94-13.54V502.17c0-4.89 1.94-9.59 5.4-13.05l36.91-36.88c3.46-3.46 8.16-5.4 13.05-5.4h63.07c8.59-12.97 26.78-36.86 56.83-60.61 39.58-31.26 108.52-68.52 212.12-68.52 103.65 0 172.48 37.29 211.98 68.58 29.97 23.75 48.07 47.64 56.67 60.64 108.44 0.03 163.83 0.89 195.77 30.18 33.64 30.86 33.64 84.39 33.64 191.1 0 10.19-8.24 18.45-18.43 18.45H158.13z m-54.99-63.44c12.62 10.13 36.83 26.54 54.99 26.54h756.66c-0.11-81.26-1.49-126.92-21.67-145.43-22.37-20.51-78.8-20.51-181.21-20.51-6.84 0-13.13-3.81-16.32-9.86-0.14-0.24-16.48-30.32-54.31-59.85-50.58-39.48-113.7-59.48-187.66-59.48-177.18 0-241.71 118.11-242.36 119.3a18.453 18.453 0 0 1-16.29 9.81h-65.74l-26.08 26.1V623.2z" fill="#FFCE54" p-id="1101"></path>
    <path d="M269.16 557.91c-50.86 0-92.22 41.37-92.22 92.22 0 50.88 41.37 92.25 92.22 92.25s92.22-41.37 92.22-92.25c0-50.85-41.37-92.22-92.22-92.22zM748.76 557.91c-50.86 0-92.22 41.37-92.22 92.22 0 50.88 41.37 92.25 92.22 92.25s92.22-41.37 92.22-92.25c0.01-50.85-41.36-92.22-92.22-92.22z" fill="#434A54" p-id="1102"></path>
    <path d="M250.7 650.14c0 10.19 8.27 18.46 18.46 18.46 10.19 0 18.46-8.27 18.46-18.46s-8.27-18.43-18.46-18.43c-10.19 0-18.46 8.24-18.46 18.43z" fill="#F5F7FA" p-id="1103"></path>
    <path d="M361.49 520.76c-10.19 0-18.46 8.24-18.46 18.46 0 10.19 8.27 18.43 18.46 18.43 10.19 0 18.46-8.24 18.46-18.43 0-10.22-8.27-18.46-18.46-18.46zM398.37 557.64c-10.19 0-18.43 8.27-18.43 18.46 0 10.19 8.24 18.46 18.43 18.46s18.46-8.27 18.46-18.46c0-10.19-8.27-18.46-18.46-18.46zM435.29 520.76c-10.19 0-18.46 8.24-18.46 18.46 0 10.19 8.27 18.43 18.46 18.43 10.19 0 18.43-8.24 18.43-18.43-0.01-10.22-8.25-18.46-18.43-18.46z" fill="#434A54" p-id="1104"></path>
    <path d="M472.17 576.1m-18.46 0a18.46 18.46 0 1 0 36.92 0 18.46 18.46 0 1 0-36.92 0Z" fill="#434A54" p-id="1105"></path>
    <path d="M509.05 520.76c-10.19 0-18.43 8.24-18.43 18.46 0 10.19 8.24 18.43 18.43 18.43s18.46-8.24 18.46-18.43c0-10.22-8.27-18.46-18.46-18.46zM545.97 557.64c-10.19 0-18.46 8.27-18.46 18.46 0 10.19 8.27 18.46 18.46 18.46 10.19 0 18.43-8.27 18.43-18.46-0.01-10.19-8.25-18.46-18.43-18.46zM582.85 520.76c-10.19 0-18.46 8.24-18.46 18.46 0 10.19 8.27 18.43 18.46 18.43s18.46-8.24 18.46-18.43c0-10.22-8.27-18.46-18.46-18.46zM619.73 557.64c-10.19 0-18.43 8.27-18.43 18.46 0 10.19 8.24 18.46 18.43 18.46s18.46-8.27 18.46-18.46c0-10.19-8.27-18.46-18.46-18.46zM656.65 520.76c-10.19 0-18.46 8.24-18.46 18.46 0 10.19 8.27 18.43 18.46 18.43s18.43-8.24 18.43-18.43c-0.01-10.22-8.25-18.46-18.43-18.46z" fill="#434A54" p-id="1106"></path>
    <path d="M730.31 650.14c0 10.19 8.27 18.46 18.46 18.46 10.19 0 18.46-8.27 18.46-18.46s-8.27-18.43-18.46-18.43c-10.2 0-18.46 8.24-18.46 18.43zM946.61 538.46c-2.27-14.08-5.59-26.05-10.4-36.29h-58.56c-10.19 0-18.46 8.24-18.46 18.45 0 10.19 8.27 18.43 18.46 18.43h64.39c1.6 0 3.11-0.21 4.57-0.59z" fill="#F5F7FA" p-id="1107"></path>
    <path d="M121.59 446.83c-4.89 0-9.59 1.95-13.05 5.4l-36.91 36.88c-3.46 3.46-5.4 8.16-5.4 13.05h55.37c10.19 0 18.43-8.27 18.43-18.46v-36.88h-18.44z" fill="#FC6E51" p-id="1108"></path>
</svg>