<?xml version="1.0" standalone="no"?>
<!DOCTYPE svg PUBLIC "-//W3C//DTD SVG 1.1//EN" "http://www.w3.org/Graphics/SVG/1.1/DTD/svg11.dtd">
<svg t="1653222217810" class="icon" viewBox="0 0 1024 1024" version="1.1" xmlns="http://www.w3.org/2000/svg" p-id="2936" xmlns:xlink="http://www.w3.org/1999/xlink" width="32" height="32">
    <defs>
        <style type="text/css">@font-face { font-family: feedback-iconfont; src: url("//at.alicdn.com/t/font_1031158_u69w8yhxdu.woff2?t=1630033759944") format("woff2"), url("//at.alicdn.com/t/font_1031158_u69w8yhxdu.woff?t=1630033759944") format("woff"), url("//at.alicdn.com/t/font_1031158_u69w8yhxdu.ttf?t=1630033759944") format("truetype"); }
</style>
    </defs>
    <path d="M919.51104 484.49024a27.5968 27.5968 0 0 0-27.67872 27.50976c0 206.7968-169.2416 375.03488-377.2672 375.03488S137.29792 718.80192 137.29792 512 306.54464 136.97024 514.56 136.97024A379.904 379.904 0 0 1 802.05312 269.312l-60.87168-17.29536a27.52512 27.52512 0 1 0-15.22176 52.90496l130.87232 37.1968 2.41152 0.25088a45.824 45.824 0 0 0 50.57536-42.52672l0.17408-2.79552-19.15392-135.168a27.67872 27.67872 0 0 0-54.81984 7.68l9.2416 65.19808A435.61472 435.61472 0 0 0 514.56 81.92C276.01408 81.92 81.92 274.8672 81.92 512s194.07872 430.08 432.64 430.08 432.64-192.9216 432.64-430.08a27.5968 27.5968 0 0 0-27.68896-27.50976z" fill="#2966C1" p-id="2937"></path>
    <path d="M630.784 555.17184h-86.94784v-34.44224H630.784a27.5712 27.5712 0 1 0 0-55.13728h-55.12704l72.192-71.59296a27.39712 27.39712 0 0 0 0-38.98368 27.95008 27.95008 0 0 0-39.30624 0l-91.60192 90.84416c-0.3072 0-0.59392-0.08704-0.90112-0.08704a27.61728 27.61728 0 0 0-3.6608 0.36864l-91.86816-91.136a27.94496 27.94496 0 0 0-39.30112 0 27.40224 27.40224 0 0 0 0 38.98368l72.192 71.59296H401.3056a27.5712 27.5712 0 1 0 0 55.13728h86.9376v34.44224H401.3056a27.5712 27.5712 0 1 0 0 55.13728h86.9376v90.624a27.79648 27.79648 0 0 0 55.59296 0V610.304H630.784a27.5712 27.5712 0 1 0 0-55.13216z" fill="#FD9A16" p-id="2938"></path>
</svg>