<?xml version="1.0" standalone="no"?>
<!DOCTYPE svg PUBLIC "-//W3C//DTD SVG 1.1//EN" "http://www.w3.org/Graphics/SVG/1.1/DTD/svg11.dtd">
<svg t="1653204878248" class="icon" viewBox="0 0 1024 1024" version="1.1" xmlns="http://www.w3.org/2000/svg" p-id="3233" xmlns:xlink="http://www.w3.org/1999/xlink" width="32" height="32">
    <defs>
        <style type="text/css">@font-face { font-family: feedback-iconfont; src: url("//at.alicdn.com/t/font_1031158_u69w8yhxdu.woff2?t=1630033759944") format("woff2"), url("//at.alicdn.com/t/font_1031158_u69w8yhxdu.woff?t=1630033759944") format("woff"), url("//at.alicdn.com/t/font_1031158_u69w8yhxdu.ttf?t=1630033759944") format("truetype"); }
</style>
    </defs>
    <path d="M10.666667 10.666667m213.333333 0l576 0q213.333333 0 213.333333 213.333333l0 576q0 213.333333-213.333333 213.333333l-576 0q-213.333333 0-213.333333-213.333333l0-576q0-213.333333 213.333333-213.333333Z" fill="#F3F8FF" p-id="3234"></path>
    <path d="M297.706667 344.597333c-78.805333 0-142.72 64.597333-142.72 144.298667 0 113.706667 142.72 236.693333 142.72 236.693333s142.698667-128.192 142.698666-236.693333c0.085333-79.701333-63.786667-144.298667-142.72-144.298667z m0 223.104c-43.52 0-78.72-35.605333-78.72-79.594666 0-43.904 35.2-79.616 78.72-79.616 43.498667 0 78.698667 35.626667 78.698666 79.616 0 43.989333-35.2 79.573333-78.72 79.573333zM758.186667 141.589333c-63.104 0-114.197333 51.712-114.197334 115.413334 0 90.88 114.197333 189.290667 114.197334 189.290666s114.197333-102.613333 114.197333-189.290666c0-63.701333-51.114667-115.413333-114.197333-115.413334z m0 178.517334c-34.816 0-62.997333-28.501333-62.997334-63.616 0-35.093333 28.181333-63.68 62.997334-63.68 34.773333 0 62.997333 28.48 62.997333 63.68 0 35.114667-28.202667 63.616-62.997333 63.616z" fill="#DAE9FF" p-id="3235"></path>
    <path d="M270.72 317.290667c-78.826667 0-142.72 64.618667-142.72 144.298666 0 113.706667 142.72 236.714667 142.72 236.714667s142.677333-128.213333 142.677333-236.693333c0.106667-79.701333-63.786667-144.32-142.698666-144.32z m0 223.104C227.2 540.394667 192 504.810667 192 460.8c0-43.904 35.2-79.594667 78.72-79.594667 43.477333 0 78.677333 35.605333 78.677333 79.594667 0 44.010667-35.2 79.594667-78.698666 79.594667zM731.306667 128c-63.104 0-114.197333 51.690667-114.197334 115.413333 0 90.88 114.197333 189.290667 114.197334 189.290667s114.197333-102.613333 114.197333-189.312C845.397333 179.690667 794.304 128 731.306667 128z m0 178.410667c-34.816 0-62.997333-28.501333-62.997334-63.616 0-35.093333 28.181333-63.701333 62.997334-63.701334 34.773333 0 62.997333 28.501333 62.997333 63.701334-0.106667 35.2-28.309333 63.594667-62.997333 63.594666z" fill="#3889FF" p-id="3236"></path>
    <path d="M337.706667 882.005333c177.002667-106.197333 353.898667-212.416 530.901333-318.613333 44.693333-26.88 4.096-97.6-40.810667-70.592L296.896 811.392c-44.8 26.816-4.096 97.493333 40.810667 70.613333z" fill="#FFD6C2" p-id="3237"></path>
    <path d="M310.698667 854.698667L841.6 536.106667c44.693333-26.901333 4.096-97.6-40.810667-70.613334L269.909333 784.106667c-44.714667 26.794667-4.117333 97.6 40.789334 70.613333z" fill="#FB560A" p-id="3238"></path>
</svg>