<?xml version="1.0" standalone="no"?>
<!DOCTYPE svg PUBLIC "-//W3C//DTD SVG 1.1//EN" "http://www.w3.org/Graphics/SVG/1.1/DTD/svg11.dtd">
<svg t="1653220611641" class="icon" viewBox="0 0 1024 1024" version="1.1" xmlns="http://www.w3.org/2000/svg" p-id="5248" xmlns:xlink="http://www.w3.org/1999/xlink" width="64" height="64">
    <defs>
        <style type="text/css">@font-face { font-family: feedback-iconfont; src: url("//at.alicdn.com/t/font_1031158_u69w8yhxdu.woff2?t=1630033759944") format("woff2"), url("//at.alicdn.com/t/font_1031158_u69w8yhxdu.woff?t=1630033759944") format("woff"), url("//at.alicdn.com/t/font_1031158_u69w8yhxdu.ttf?t=1630033759944") format("truetype"); }
</style>
    </defs>
    <path d="M374.8352 720.0256a15.36 15.36 0 0 1-15.36-15.36V319.232a15.36 15.36 0 0 1 30.72 0v385.4336a15.36 15.36 0 0 1-15.36 15.36zM649.8816 720.0256a15.36 15.36 0 0 1-15.36-15.36V319.232a15.36 15.36 0 1 1 30.72 0v385.4336a15.36 15.36 0 0 1-15.36 15.36zM509.7472 511.5392a54.9888 54.9888 0 1 1 54.9888-54.9888 55.04 55.04 0 0 1-54.9888 54.9888z m0-79.2576a24.2688 24.2688 0 1 0 24.2688 24.2688 24.2688 24.2688 0 0 0-24.2688-24.2688z" fill="#099DFD" p-id="5249"></path>
    <path d="M760.2688 720.0256h-496.64a15.36 15.36 0 1 1 0-30.72h496.64a15.36 15.36 0 0 1 0 30.72z" fill="#099DFD" p-id="5250"></path>
    <path d="M263.7312 720.0256a15.36 15.36 0 0 1-15.36-15.36v-109.9776a15.36 15.36 0 0 1 30.72 0v109.9776a15.36 15.36 0 0 1-15.36 15.36zM760.2688 720.0256a15.36 15.36 0 0 1-15.36-15.36v-110.4384a15.36 15.36 0 0 1 30.72 0v110.4384a15.36 15.36 0 0 1-15.36 15.36z" fill="#099DFD" p-id="5251"></path>
    <path d="M263.7312 610.048a15.36 15.36 0 0 1-10.8544-4.5056 15.36 15.36 0 0 1 0-21.7088L359.0144 477.696a15.36 15.36 0 1 1 21.7088 21.7088l-106.1376 106.1376a15.36 15.36 0 0 1-10.8544 4.5056zM760.2688 609.5872a15.36 15.36 0 0 1-10.8544-4.5056L638.4128 494.08a15.36 15.36 0 1 1 21.7088-21.7088l111.0016 111.0016a15.36 15.36 0 0 1 0 21.7088 15.36 15.36 0 0 1-10.8544 4.5056zM374.8352 334.592a15.36 15.36 0 0 1-10.8544-4.5056 15.36 15.36 0 0 1 0-21.7088L501.76 170.8544a15.36 15.36 0 0 1 21.7088 21.7088L385.6896 330.0864a15.36 15.36 0 0 1-10.8544 4.5056z" fill="#099DFD" p-id="5252"></path>
    <path d="M649.8816 334.592a15.36 15.36 0 0 1-10.8544-4.5056L501.76 192.5632a15.36 15.36 0 1 1 21.7088-21.7088l137.5232 137.5232a15.36 15.36 0 0 1-10.8544 26.2144zM513.792 857.6512a15.36 15.36 0 0 1-15.36-15.36v-137.3696a15.36 15.36 0 0 1 30.72 0v137.3696a15.36 15.36 0 0 1-15.36 15.36zM445.44 808.96a15.36 15.36 0 0 1-15.36-15.36v-88.6784a15.36 15.36 0 0 1 30.72 0V793.6a15.36 15.36 0 0 1-15.36 15.36zM584.0896 808.96a15.36 15.36 0 0 1-15.36-15.36v-88.6784a15.36 15.36 0 0 1 30.72 0V793.6a15.36 15.36 0 0 1-15.36 15.36z" fill="#099DFD" p-id="5253"></path>
</svg>