<?xml version="1.0" standalone="no"?>
<!DOCTYPE svg PUBLIC "-//W3C//DTD SVG 1.1//EN" "http://www.w3.org/Graphics/SVG/1.1/DTD/svg11.dtd">
<svg t="1654334473126" class="icon" viewBox="0 0 1024 1024" version="1.1" xmlns="http://www.w3.org/2000/svg" p-id="6065" xmlns:xlink="http://www.w3.org/1999/xlink" width="32" height="32">
	<defs>
		<style type="text/css">
			@font-face { font-family: feedback-iconfont; src: url("//at.alicdn.com/t/font_1031158_u69w8yhxdu.woff2?t=1630033759944") format("woff2"), url("//at.alicdn.com/t/font_1031158_u69w8yhxdu.woff?t=1630033759944") format("woff"), url("//at.alicdn.com/t/font_1031158_u69w8yhxdu.ttf?t=1630033759944") format("truetype"); }
		</style>
	</defs>
	<path d="M512 1024C229.233778 1024 0 794.766222 0 512S229.233778 0 512 0s512 229.233778 512 512-229.233778 512-512 512z m261.461333-474.424889L782.222222 386.929778c0-14.734222-11.946667-26.680889-26.666666-26.680889h-124.017778c-14.734222 0-26.680889 11.946667-26.680889 26.680889l11.121778 162.645333c0 14.734222 11.918222 26.680889 26.652444 26.680889h5.504l10.069333 171.164444c0 14.734222 6.172444 26.666667 20.906667 26.666667h37.774222c14.705778 0 19.072-11.932444 19.072-26.666667l10.069334-171.164444h0.768c14.705778 0 26.666667-11.946667 26.666666-26.680889z m-76.416-201.912889a52.949333 52.949333 0 1 0 0-105.898666 52.949333 52.949333 0 0 0 0 105.898666zM604.842667 682.24v-102.016c0-23.352889-17.408-54.058667-39.950223-58.908444l-27.576888-68.949334c-12.216889-26.126222-41.329778-45.980444-66.702223-45.980444h-95.004444c-25.400889 0-49.038222 19.740444-61.738667 44.970666l-31.900444 69.347556C257.208889 521.713778 241.777778 558.08 241.777778 583.111111v99.128889c0 25.386667 15.843556 22.983111 41.244444 22.983111v28.017778c0 14.279111 13.724444 25.144889 28.017778 25.144889 14.264889 0 30.862222-10.851556 30.862222-25.144889v-28.017778h159.488v26.595556c0 15.075556 12.231111 27.278222 27.306667 27.278222s30.151111-12.202667 30.151111-27.292445v-26.581333c25.415111 0 45.994667 2.403556 45.994667-22.983111zM283.733333 588.487111a34.104889 34.104889 0 0 1 34.133334-34.104889 34.104889 34.104889 0 1 1 0 68.224 34.104889 34.104889 0 0 1-34.133334-34.133333zM452.48 435.342222c67.953778 9.6 71.751111 66.816 71.736889 81.976889l-196.579556-0.071111c-0.270222-17.536 6.058667-71.594667 65.080889-81.493333l59.761778-0.412445z m75.861333 119.025778a34.119111 34.119111 0 1 1 0 68.224 34.119111 34.119111 0 0 1 0-68.224z" fill="#1296db" p-id="6066">
	</path>
</svg>
