<?xml version="1.0" standalone="no"?>
<!DOCTYPE svg PUBLIC "-//W3C//DTD SVG 1.1//EN" "http://www.w3.org/Graphics/SVG/1.1/DTD/svg11.dtd">
<svg t="1654334319936" class="icon" viewBox="0 0 1024 1024" version="1.1" xmlns="http://www.w3.org/2000/svg" p-id="1121" xmlns:xlink="http://www.w3.org/1999/xlink" width="32" height="32">
	<defs>
		<style type="text/css">
			@font-face { font-family: feedback-iconfont; src: url("//at.alicdn.com/t/font_1031158_u69w8yhxdu.woff2?t=1630033759944") format("woff2"), url("//at.alicdn.com/t/font_1031158_u69w8yhxdu.woff?t=1630033759944") format("woff"), url("//at.alicdn.com/t/font_1031158_u69w8yhxdu.ttf?t=1630033759944") format("truetype"); }
		</style>
	</defs>
	<path d="M710 0H314C140.9 0 0 140.9 0 314v396c0 173.2 140.9 314 314 314h396c173.2 0 314-140.9 314-314V314C1024 140.9 883.1 0 710 0z m286.7 710c0 158.1-128.6 286.7-286.7 286.7H314C155.9 996.7 27.3 868.1 27.3 710V314C27.3 155.9 155.9 27.3 314 27.3h396c158.1 0 286.7 128.6 286.7 286.7v396z" fill="#1296db" p-id="1122">
	</path>
	<path d="M830.1 367.9H820L784.7 378l-35.3-85.9c-10-25.3-40.3-45.6-70.5-45.6h-25.2l-297.1-0.8-25.2 0.8c-30.2 0-60.4 20.6-70.5 45.6L225.8 378l-35.3-10.1h-10.1c-16.2 1.1-29.1 14.1-30.2 30.4v20.4c-0.1 10.8 4 21.1 11.6 28.7 7.6 7.6 17.9 11.8 28.6 11.7l-5 10.1c-10 25.3-20.5 65.7-20.5 91v177c-0.1 10.8 4.1 21.2 11.7 28.8 7.6 7.6 17.9 11.8 28.7 11.6h45.3c10.7 0.1 21.1-4.1 28.6-11.7 7.6-7.6 11.8-18 11.6-28.7v-45.5h417.9v45.5c-0.1 10.8 4 21.1 11.6 28.7 7.6 7.6 17.9 11.8 28.6 11.7h45.6c10.7 0.2 21.1-4 28.7-11.6 7.6-7.6 11.8-18 11.7-28.8V560c0-25.3-10.1-65.7-20.1-91l5-10.1h5c20.1 0 35.3-15.1 35.3-40.4v-20.3c-1.1-16.3-13.9-29.2-30-30.3zM298.3 619.1c-16.4 0-31.2-9.9-37.4-25-6.3-15.2-2.8-32.7 8.8-44.3 11.6-11.6 29-15.1 44.1-8.8 15.1 6.3 25 21.1 25 37.6-0.2 22.3-18.2 40.5-40.5 40.5z m264.3-33.7l-120.8 63.4 53.7-54.4-47.8-17.2 66.7-76.4 54.6 13.7-58.4 53.6 52 17.3z m178.3 21.9c-7.6 7.6-17.9 11.8-28.6 11.8-16.3 0-31.1-9.9-37.4-25-6.3-15.2-2.8-32.7 8.8-44.3 11.6-11.6 29-15.1 44.1-8.8 15.1 6.3 25 21.1 25 37.6 0 10.7-4.3 21-11.9 28.7zM739.4 469H276c-15.2-5.1-25.2-15.1-15.2-30.4l55.4-131.4c5.3-17.9 21.6-30.2 40.3-30.4h307.1c15.1 0 35.3 15.2 40.3 30.4l55.4 131.4c5.3 15.2 0.3 30.4-19.9 30.4z" fill="#1296db" p-id="1123">
	</path>
</svg>
