<?xml version="1.0" standalone="no"?>
<!DOCTYPE svg PUBLIC "-//W3C//DTD SVG 1.1//EN" "http://www.w3.org/Graphics/SVG/1.1/DTD/svg11.dtd">
<svg t="1654334414093" class="icon" viewBox="0 0 1024 1024" version="1.1" xmlns="http://www.w3.org/2000/svg" p-id="3227" xmlns:xlink="http://www.w3.org/1999/xlink" width="32" height="32">
	<defs>
		<style type="text/css">
			@font-face { font-family: feedback-iconfont; src: url("//at.alicdn.com/t/font_1031158_u69w8yhxdu.woff2?t=1630033759944") format("woff2"), url("//at.alicdn.com/t/font_1031158_u69w8yhxdu.woff?t=1630033759944") format("woff"), url("//at.alicdn.com/t/font_1031158_u69w8yhxdu.ttf?t=1630033759944") format("truetype"); }
		</style>
	</defs>
	<path d="M710 1024H314C140.9 1024 0 883.1 0 710V314C0 140.9 140.9 0 314 0h396c173.2 0 314 140.9 314 314v396c0 173.1-140.9 314-314 314zM314 27.3C155.9 27.3 27.3 155.9 27.3 314v396c0 158.1 128.6 286.7 286.7 286.7h396c158.1 0 286.7-128.6 286.7-286.7V314c0-158.1-128.6-286.7-286.7-286.7H314z" fill="#1296db" p-id="3228">
	</path>
	<path d="M490.3 248.8c-1.7-6.9-3.4-14.5-5.2-21.2-1.6 6.9-3.3 14.6-5.1 21.2l-1.4 5.6h13.6l-1.9-5.6zM830.1 409H820l-35.2 10.2-35.3-86.2c-10-25.3-40.3-45.6-70.5-45.6h-25.2v-70.9c0.4-6.8-2.1-13.5-6.9-18.4-4.8-4.8-11.4-7.4-18.2-7H381.9c-6.8-0.4-13.4 2.1-18.2 7-4.8 4.8-7.3 11.5-6.9 18.4v70.8h-25.2c-30.2 0-60.4 20.6-70.5 45.6L225.8 419l-35.3-10.2h-10.1c-16.2 1.1-29.1 14.1-30.2 30.4v20.3c-0.1 10.8 4 21.2 11.6 28.8 7.6 7.6 17.9 11.8 28.6 11.7l-5.1 10.2c-10 25.3-20.5 65.8-20.5 91.2v177.3c-0.1 10.8 4.1 21.2 11.6 28.9 7.6 7.6 17.9 11.9 28.7 11.7h45.3c10.7 0.1 21.1-4.1 28.7-11.7 7.6-7.6 11.8-18.1 11.6-28.8v-45.1h417.9v45.6c-0.2 10.8 4 21.2 11.6 28.8 7.6 7.6 17.9 11.9 28.7 11.7h45.6c10.7 0.1 21.1-4.1 28.7-11.7 7.6-7.6 11.8-18 11.6-28.9V601.5c0-25.3-10.1-65.8-20.1-91.2l5-10.2h5.1c20.1 0 35.3-15.2 35.3-40.5v-20.3c-1-16.1-13.9-29.1-30-30.3zM579.2 215.8H595v66h-15.8v-66z m-84.5 0l20.5 65.5 17.8-33.4-17.1-32.1h17.6l5.3 11.8c1.4 3.1 2.9 6.5 4.8 10.8h0.3c1.5-4.3 2.9-7.7 4.2-10.8l4.8-11.8h16.5l-17 32.7 18.2 33.3H553l-6.1-12.9c-1.6-3.4-3.1-6.9-4.8-11h-0.4c-1.6 4.1-2.9 7.6-4.4 11l-5.7 12.9h-33l-3.8-15.2h-19.4l-3.8 15.2h-16.1l20.5-66h18.7z m-88.7 0h51.4v13.1h-17.6v52.9H424v-52.9h-17.7l-0.3-13.1zM260.8 479.9l55.4-131.7c5.3-18 21.6-30.3 40.3-30.4h307.1c15.1 0 35.3 15.2 40.3 30.4l55.4 131.7c5.1 15.2 0 30.4-20.5 30.4H276c-14.9-5.1-25-15.2-14.9-30.4h-0.3z m120.8 172.3c0.5 4.1-1 8.3-3.9 11.2-2.9 3-7 4.4-11.2 3.9H260.8c-4.1 0.5-8.2-1-11.2-3.9-2.9-3-4.4-7.1-3.9-11.2v-50.7c0.4-8.2 6.9-14.7 15.1-15.2h105.8c4.1-0.5 8.2 1 11.2 3.9 2.9 3 4.4 7.1 3.9 11.2v50.8z m387.8 0c0.5 4.2-1 8.3-3.9 11.3-3 3-7.1 4.4-11.2 3.9H648.8c-4.1 0.5-8.3-1-11.2-3.9-3-3-4.4-7.1-3.9-11.3v-50.7c-0.5-4.2 1-8.3 3.9-11.3 3-3 7.1-4.4 11.2-3.9h105.7c4.1-0.5 8.3 1 11.2 3.9 3 3 4.4 7.1 3.9 11.3l-0.2 50.7z" fill="#1296db" p-id="3229">
	</path>
</svg>
