<?xml version="1.0" standalone="no"?>
<!DOCTYPE svg PUBLIC "-//W3C//DTD SVG 1.1//EN" "http://www.w3.org/Graphics/SVG/1.1/DTD/svg11.dtd">
<svg t="1654334457212" class="icon" viewBox="0 0 1024 1024" version="1.1" xmlns="http://www.w3.org/2000/svg" p-id="5866" xmlns:xlink="http://www.w3.org/1999/xlink" width="32" height="32">
	<defs>
		<style type="text/css">
			@font-face { font-family: feedback-iconfont; src: url("//at.alicdn.com/t/font_1031158_u69w8yhxdu.woff2?t=1630033759944") format("woff2"), url("//at.alicdn.com/t/font_1031158_u69w8yhxdu.woff?t=1630033759944") format("woff"), url("//at.alicdn.com/t/font_1031158_u69w8yhxdu.ttf?t=1630033759944") format("truetype"); }
		</style>
	</defs>
	<path d="M433.9 270.3c51.5-7.7 103.8-7.7 155.3 0 36.2 7.3 72.4 13.1 106.4 22.5 25.3 6.5 45.6 25.5 53.6 50.5 14.7 41.6 30.2 82.9 46.3 123.8 2.9 6.9 11.6 17.1 16.7 16.3 28.7-4.9 56.1 14.2 61.6 42.9 1.8 7.4 1.8 15.1 0 22.5l-41.3 11.3c2.6 14.4 4.2 29 5.1 43.6v201.2c-0.5 12.2-4.8 23.9-12.3 33.4-38.2 7.4-77.4 8.1-115.9 2.2-26.8-17.1-10.1-45.8-18.8-69H338.7c-6.9 24.7-10.9 66.1-18.8 69-39.3 6.9-79.5 6.9-118.8 0-8.3-11.1-12.9-24.6-13-38.5-2.2-29.1-2.2-56.7-2.2-85 0-52.7 0-105.3 2.2-158.3l-38.4-10.2c-1.3-5.9-1.3-11.9 0-17.8 10.9-29.1 25.3-51.6 62.6-48.3 4.3 0 12.7-8.7 15.2-15.3 13.8-32.4 25.9-65.5 36.2-99.1 13.9-49.8 57.3-85.5 108.6-89.7 19.9-3.6 40.6-6.2 60.5-9.4l1.1 1.4zM273.8 494.7c156.1 33.1 317.4 33.1 473.6 0-13.4-40.3-26.8-76.3-36.2-112.6-5.8-28.6-31.1-48.9-60.1-48.3-74.9-3.3-150.3-5.8-225.2-6.5-24.5 1-48.8 4.7-72.4 11.3-10.9 2.2-20.4 8.8-26.4 18.2-20.3 43.9-35.5 89.3-53.3 137.9z m30.8 171.5c13 0.7 25.9 0 38.7-2.2 10-2.3 18.6-8.8 23.5-17.8 1.8-5.4-6.5-18.9-13.8-22.2-29.5-13.8-59.7-26-90.5-36.3-15.2-5.1-32.6-4-36.2 17.4-7.2 31.6 0 49 23.5 54.1 18.5 3.6 36.2 4.4 56.5 6.2l-1.7 0.8z m417.5 0c19.1-1.4 38-3.8 56.8-7.3 27.2-6.2 21.4-28.3 20.6-47.6-0.7-19.2-10.9-28.3-25.7-24-37.2 11.1-73.5 24.9-108.6 41.4-15.9 7.6-10.1 28.7 8 32.7 16.2 2.4 32.5 3.9 48.9 4.4v0.4z" p-id="5867" fill="#1296db">
	</path>
</svg>
