<?xml version="1.0" standalone="no"?>
<!DOCTYPE svg PUBLIC "-//W3C//DTD SVG 1.1//EN" "http://www.w3.org/Graphics/SVG/1.1/DTD/svg11.dtd">
<svg t="1654349811283" class="icon" viewBox="0 0 1024 1024" version="1.1" xmlns="http://www.w3.org/2000/svg" p-id="4662" xmlns:xlink="http://www.w3.org/1999/xlink" width="32" height="32">
	<defs>
		<style type="text/css">
			@font-face { font-family: feedback-iconfont; src: url("//at.alicdn.com/t/font_1031158_u69w8yhxdu.woff2?t=1630033759944") format("woff2"), url("//at.alicdn.com/t/font_1031158_u69w8yhxdu.woff?t=1630033759944") format("woff"), url("//at.alicdn.com/t/font_1031158_u69w8yhxdu.ttf?t=1630033759944") format("truetype"); }
		</style>
	</defs>
	<path d="M486.4 62.464C279.552 62.464 112.64 230.4 112.64 437.248c0 133.12 112.64 303.104 335.872 516.096 21.504 20.48 55.296 20.48 76.8 0C747.52 740.352 860.16 569.344 860.16 437.248 860.16 230.4 693.248 62.464 486.4 62.464z m0 698.368c-179.2 0-324.608-145.408-324.608-324.608C161.792 258.048 307.2 112.64 486.4 112.64s324.608 145.408 324.608 324.608S665.6 760.832 486.4 760.832z m0 0" fill="#1296db" p-id="4663">
	</path>
	<path d="M606.208 442.368v-14.336H501.76v156.672h116.736V471.04h33.792v158.72h-33.792v-14.336H317.44V471.04h33.792v113.664h114.688V428.032H328.704v-143.36h33.792v113.664h104.448V247.808H501.76v149.504h105.472v-112.64h33.792v158.72h-34.816z" fill="#1296db" p-id="4664">
	</path>
	<path d="M657.408 634.88h-44.032v-14.336H312.32V465.92h44.032v113.664H460.8V433.152H323.584v-153.6h44.032v113.664h94.208V242.688h45.056v149.504h95.232v-112.64h44.032v168.96h-44.032v-14.336h-95.232v146.432h106.496V465.92h44.032V634.88z m-33.792-10.24h23.552V476.16h-23.552v113.664H496.64V422.912h115.712v14.336h23.552V289.792h-23.552v113.664H496.64V252.928h-24.576v149.504H357.376v-112.64h-23.552v133.12h138.24v166.912H347.136V476.16h-23.552v134.144H624.64V624.64z" fill="#1296db" p-id="4665">
	</path>
</svg>
