<?xml version="1.0" standalone="no"?>
<!DOCTYPE svg PUBLIC "-//W3C//DTD SVG 1.1//EN" "http://www.w3.org/Graphics/SVG/1.1/DTD/svg11.dtd">
<svg t="1654334397375" class="icon" viewBox="0 0 1024 1024" version="1.1" xmlns="http://www.w3.org/2000/svg" p-id="2106" xmlns:xlink="http://www.w3.org/1999/xlink" width="32" height="32">
	<defs>
		<style type="text/css">
			@font-face { font-family: feedback-iconfont; src: url("//at.alicdn.com/t/font_1031158_u69w8yhxdu.woff2?t=1630033759944") format("woff2"), url("//at.alicdn.com/t/font_1031158_u69w8yhxdu.woff?t=1630033759944") format("woff"), url("//at.alicdn.com/t/font_1031158_u69w8yhxdu.ttf?t=1630033759944") format("truetype"); }
		</style>
	</defs>
	<path d="M948.8 458c-20-12.8-24-18.4-31.2-34 7.2 0 15.6-2.8 20-2.8 11.2 0 1.6 2.8 20 2.8s44-4.4 52.4-12.8c8.4-7.2 12.8-17.2 12.8-24 0-7.2-4.4-14-12.8-22.8-8.4-8.4-21.2-12.8-60.8-12.8-24 0-58 22.8-58 22.8v12.8c-36.8-60.8-25.6-39.6-52.4-84.8-54-88-140.4-106.4-229.6-109.2h-195.6C324.4 196 238 214.4 184 302.4c-26.8 44-15.6 24-52.4 84.8v-12.8s-34-22.8-58-22.8c-38.4 0-52.4 4.4-60.8 12.8-7.2 8.8-12.8 16-12.8 22.8 0 7.2 5.6 16.8 12.8 24 8.4 7.2 34 12.8 52.4 12.8s8.4-2.8 20-2.8c4.4 0 12.8 2.8 20 2.8-7.2 16.8-11.2 21.2-31.2 34C22.8 492 0 509.2 0 635.2c2.8 195.6 63.6 195.6 294.8 195.6h437.6c229.6 0 291.6 0 291.6-195.6-1.6-126-24-143.2-75.2-177.2zM236.4 352c25.6-48 84.8-100.4 191.2-100.4h170c106.4 0 164.4 52.4 191.2 100.4 11.2 21.2 29.6 52.4 28.4 58H209.6c-2.8-5.6 15.6-36.8 26.8-58z m-116 273.2c-72.4 0-63.6-78-39.6-102 28.4-28.4 236.4-8.4 236.4 89.2 1.6 15.6-124.4 12.8-196.8 12.8z m556.8 120.4c-34 4.4-86.4 5.6-151.6 5.6h-24c-66.4 0-118.8-1.6-151.6-5.6-34-4.4-79.2-36.8-48-62.4 42.4-35.6 92-45.2 127.6-45.2 25.6 0 55.2 1.6 84.8 0 29.6 1.6 59.6 0 84.8 0 36.8 0 86.4 10 127.6 45.2 29.6 25.6-16 59.6-49.6 62.4z m228-120.4c-72.4 0-198.4 2.8-198.4-12.8 0-97.6 208.4-117.6 236.4-89.2 25.6 25.6 34 102-38 102z" p-id="2107" fill="#1296db">
	</path>
</svg>
