<?xml version="1.0" standalone="no"?>
<!DOCTYPE svg PUBLIC "-//W3C//DTD SVG 1.1//EN" "http://www.w3.org/Graphics/SVG/1.1/DTD/svg11.dtd">
<svg t="1654349826350" class="icon" viewBox="0 0 1024 1024" version="1.1" xmlns="http://www.w3.org/2000/svg" p-id="5569" xmlns:xlink="http://www.w3.org/1999/xlink" width="32" height="32">
	<defs>
		<style type="text/css">
			@font-face { font-family: feedback-iconfont; src: url("//at.alicdn.com/t/font_1031158_u69w8yhxdu.woff2?t=1630033759944") format("woff2"), url("//at.alicdn.com/t/font_1031158_u69w8yhxdu.woff?t=1630033759944") format("woff"), url("//at.alicdn.com/t/font_1031158_u69w8yhxdu.ttf?t=1630033759944") format("truetype"); }
		</style>
	</defs>
	<path d="M510.57089844 84.80849609A422.04726562 422.04726562 0 0 0 88.47089844 506.90849609a422.04726562 422.04726562 0 0 0 422.1 422.15361329 422.04726562 422.04726562 0 1 0 0-844.25361329z m165.28183594 547.94179688H546.51728516v75.49365234c0 18-14.34638672 32.29453125-35.94726563 32.29453125-18 0-35.89365234-14.29453125-35.89365234-32.29453125v-75.54726562H345.23632812c-18 0-32.34726562-17.89453125-32.34726562-35.84091797 0-18 14.4-36 32.34726563-36h129.38818359v-53.94726563H345.23544922c-18 0-32.34726562-14.29365234-32.34726563-35.89453125 0-18 14.4-36 32.34726563-36h114.98730469L356.03632812 334.42753906a34.72910156 34.72910156 0 0 1 0-50.29453125 34.83544922 34.83544922 0 0 1 50.34726563 0L514.17089844 388.37392578l100.58818359-100.69453125c14.4-14.29453125 36-14.29453125 50.34638672 0 14.34726563 14.34726563 14.34726563 36 0 50.29453125L560.86455078 438.66757813h114.98818359c18 0 32.4 18 32.4 35.94726562 0 18-14.4 36-32.4 36l-129.33544921-3.70634766v54h129.33544922c18 0 32.4 14.34726563 32.4 36 0 17.89453125-14.4 35.7890625-32.4 35.7890625z" fill="#1296db" p-id="5570">
	</path>
</svg>
