<?xml version="1.0" standalone="no"?>
<!DOCTYPE svg PUBLIC "-//W3C//DTD SVG 1.1//EN" "http://www.w3.org/Graphics/SVG/1.1/DTD/svg11.dtd">
<svg t="1654334495769" class="icon" viewBox="0 0 1024 1024" version="1.1" xmlns="http://www.w3.org/2000/svg" p-id="6722" xmlns:xlink="http://www.w3.org/1999/xlink" width="32" height="32">
	<defs>
		<style type="text/css">
			@font-face { font-family: feedback-iconfont; src: url("//at.alicdn.com/t/font_1031158_u69w8yhxdu.woff2?t=1630033759944") format("woff2"), url("//at.alicdn.com/t/font_1031158_u69w8yhxdu.woff?t=1630033759944") format("woff"), url("//at.alicdn.com/t/font_1031158_u69w8yhxdu.ttf?t=1630033759944") format("truetype"); }
		</style>
	</defs>
	<path d="M751.616 364.4416l-1.536-14.848s40.1408-21.7088 22.4256-38.7072c-39.1168-37.5808-40.96 27.136-40.96 27.136-24.6784-17.8176-54.0672-86.9376-102.8096-98.6112a485.376 485.376 0 0 0-233.3696 0c-48.7424 11.6736-78.0288 80.6912-102.8096 98.6112 0 0-1.8432-64.7168-40.96-27.136-17.7152 16.9984 22.4256 38.7072 22.4256 38.7072l-1.536 14.848S40.6528 398.5408 175.104 708.9152l32.8704 24.7808s-30.9248-55.3984-10.752-48.64c19.5584 6.656 64.4096 95.232 314.7776 103.3216 250.2656-8.0896 295.0144-96.6656 314.6752-103.3216 20.1728-6.7584-10.752 48.64-10.752 48.64l32.8704-24.7808c134.5536-310.3744-97.1776-344.4736-97.1776-344.4736z m-443.0848-19.6608s50.9952-76.5952 71.5776-84.2752c19.968-7.5776 17.7152-20.2752 131.8912-20.6848 114.176 0.4096 112.0256 13.1072 131.8912 20.6848 20.6848 7.68 71.68 84.2752 71.68 84.2752l3.072 2.56-206.6432-5.12-206.4384 5.12zM200.6016 655.36s-67.1744-3.2768-35.5328-61.44c0 0.1024 45.568 25.2928 35.5328 61.44z m26.624-65.8432c-13.4144-6.2464-52.8384-26.8288-72.192-55.9104s11.3664-77.6192 11.3664-77.6192 36.6592-34.7136 105.1648 111.7184c15.36 33.0752-31.0272 27.9552-44.3392 21.8112zM749.568 708.9152c-77.4144 41.2672-177.2544 47.9232-237.568 47.5136-60.2112 0.3072-159.9488-6.2464-237.4656-47.5136-15.872-8.6016-23.6544-41.984-15.872-59.8016 0 0-1.536-23.2448 107.3152-20.1728s126.7712 9.9328 126.7712 9.9328 8.8064 14.5408 19.2512 14.7456c10.4448-0.2048 19.3536-14.7456 19.3536-14.7456s17.7152-6.8608 126.7712-9.9328 107.3152 20.1728 107.3152 20.1728c7.7824 17.8176 0 51.2-15.872 59.8016zM823.5008 655.36c-10.0352-36.2496 35.5328-61.44 35.5328-61.44 31.6416 58.1632-35.5328 61.44-35.5328 61.44z m-26.624-65.8432c-13.4144 6.144-59.6992 11.264-44.3392-21.8112 68.5056-146.432 105.1648-111.7184 105.1648-111.7184s30.6176 48.5376 11.264 77.6192-58.6752 49.5616-72.0896 55.9104z m0 0" fill="#1296db" p-id="6723">
	</path>
</svg>
