<?xml version="1.0" standalone="no"?>
<!DOCTYPE svg PUBLIC "-//W3C//DTD SVG 1.1//EN" "http://www.w3.org/Graphics/SVG/1.1/DTD/svg11.dtd">
<svg t="1654050977861" class="icon" viewBox="0 0 1024 1024" version="1.1" xmlns="http://www.w3.org/2000/svg" p-id="3034" xmlns:xlink="http://www.w3.org/1999/xlink" width="32" height="32">
	<defs>
		<style type="text/css">
			@font-face { font-family: feedback-iconfont; src: url("//at.alicdn.com/t/font_1031158_u69w8yhxdu.woff2?t=1630033759944") format("woff2"), url("//at.alicdn.com/t/font_1031158_u69w8yhxdu.woff?t=1630033759944") format("woff"), url("//at.alicdn.com/t/font_1031158_u69w8yhxdu.ttf?t=1630033759944") format("truetype"); }
		</style>
	</defs>
	<path d="M441.107692 321.378462c140.209231 0 281.993846 97.673846 299.323077 110.276923H441.107692v-15.753847l-15.753846-78.76923v-15.753846h15.753846z" fill="#D7E9FF" p-id="3035">
	</path>
	<path d="M441.107692 415.901538v15.753847h-110.276923c-78.769231 0-110.276923-63.015385-110.276923-63.015385v-20.48c29.932308-7.876923 100.824615-25.206154 204.8-26.781538v15.753846l15.753846 78.76923zM110.276923 463.163077l-78.769231 31.507692v-47.261538z" fill="#D7E9FF" p-id="3036">
	</path>
	<path d="M47.261538 450.56l-15.753846-3.150769v47.261538l15.753846-6.301538z" fill="#FFFFFF" p-id="3037">
	</path>
	<path d="M882.215385 494.670769h105.550769l20.48 31.507693-94.523077-15.753847z" fill="#D7E9FF" p-id="3038">
	</path>
	<path d="M1008.246154 526.178462l-20.48-31.507693h-15.753846l18.904615 28.356923z" fill="#94C1FF" p-id="3039">
	</path>
	<path d="M803.446154 699.470769c-39.384615 0-70.892308-28.356923-77.193846-64.590769-1.575385-6.301538-1.575385-9.452308-1.575385-14.178462 0-44.110769 34.658462-78.769231 78.769231-78.76923s78.769231 34.658462 78.769231 78.76923c0 4.726154 0 9.452308-1.575385 14.178462-6.301538 36.233846-37.809231 64.590769-77.193846 64.590769zM204.8 699.470769c-39.384615 0-70.892308-28.356923-77.193846-64.590769-1.575385-6.301538-1.575385-9.452308-1.575385-14.178462 0-44.110769 34.658462-78.769231 78.769231-78.76923s78.769231 34.658462 78.769231 78.76923c0 4.726154 0 9.452308-1.575385 14.178462-6.301538 36.233846-37.809231 64.590769-77.193846 64.590769z" fill="#D7E9FF" p-id="3040">
	</path>
	<path d="M143.36 633.304615c-1.575385-4.726154-1.575385-7.876923-1.575385-12.603077 0-40.96 31.507692-74.043077 70.892308-77.193846-3.150769 0-4.726154-1.575385-7.876923-1.575384-44.110769 0-78.769231 34.658462-78.769231 78.76923 0 4.726154 0 9.452308 1.575385 14.178462 6.301538 37.809231 37.809231 64.590769 77.193846 64.590769h7.876923c-34.658462-4.726154-63.015385-31.507692-69.316923-66.166154z" fill="#FFFFFF" p-id="3041">
	</path>
	<path d="M266.24 606.523077c1.575385 4.726154 1.575385 9.452308 1.575385 14.178461 0 40.96-31.507692 74.043077-70.892308 77.193847 3.150769 0 4.726154 1.575385 7.876923 1.575384 44.110769 0 78.769231-34.658462 78.769231-78.769231 0-4.726154 0-9.452308-1.575385-14.178461-6.301538-37.809231-37.809231-64.590769-77.193846-64.590769h-7.876923c34.658462 3.150769 63.015385 29.932308 69.316923 64.590769z" fill="#94C1FF" p-id="3042">
	</path>
	<path d="M742.006154 633.304615c-1.575385-4.726154-1.575385-7.876923-1.575385-12.603077 0-40.96 31.507692-74.043077 70.892308-77.193846-3.150769 0-4.726154-1.575385-7.876923-1.575384-44.110769 0-78.769231 34.658462-78.769231 78.76923 0 4.726154 0 9.452308 1.575385 14.178462 6.301538 37.809231 37.809231 64.590769 77.193846 64.590769h7.876923c-34.658462-4.726154-63.015385-31.507692-69.316923-66.166154z" fill="#FFFFFF" p-id="3043">
	</path>
	<path d="M864.886154 606.523077c1.575385 4.726154 1.575385 9.452308 1.575384 14.178461 0 40.96-31.507692 74.043077-70.892307 77.193847 3.150769 0 4.726154 1.575385 7.876923 1.575384 44.110769 0 78.769231-34.658462 78.769231-78.769231 0-4.726154 0-9.452308-1.575385-14.178461-6.301538-37.809231-37.809231-64.590769-77.193846-64.590769h-7.876923c34.658462 3.150769 63.015385 29.932308 69.316923 64.590769z" fill="#94C1FF" p-id="3044">
	</path>
	<path d="M126.030769 620.701538c0 4.726154 0 9.452308 1.575385 14.178462l-17.329231 1.575385s-63.015385-7.876923-78.769231-15.753847-15.753846-15.753846-15.753846-15.753846v-78.76923l15.753846-31.507693 78.769231-31.507692-78.769231-15.753846s47.261538-47.261538 126.03077-78.769231v-31.507692l47.261538 15.753846s4.726154-1.575385 15.753846-4.726154v20.48s31.507692 63.015385 110.276923 63.015385h409.6l1.575385 1.575384L976.738462 478.916923l11.027692 15.753846H882.215385l31.507692 15.753846 94.523077 15.753847v86.646153s0 12.603077-15.753846 15.753847-94.523077 7.876923-94.523077 7.876923l-17.329231-1.575385c1.575385-4.726154 1.575385-9.452308 1.575385-14.178462 0-44.110769-34.658462-78.769231-78.769231-78.76923s-78.769231 34.658462-78.769231 78.76923c0 4.726154 0 9.452308 1.575385 14.178462l-17.329231 1.575385H299.323077l-17.329231-1.575385c1.575385-4.726154 1.575385-9.452308 1.575385-14.178462 0-44.110769-34.658462-78.769231-78.769231-78.76923s-78.769231 34.658462-78.769231 78.76923z" fill="#94C1FF" p-id="3045">
	</path>
	<path d="M173.292308 376.516923v-34.658461l-15.753846-4.726154v31.507692c-78.769231 31.507692-126.030769 78.769231-126.03077 78.769231l15.753846 3.150769s58.289231-50.412308 126.03077-74.043077zM31.507692 604.947692v-78.76923l15.753846-31.507693H31.507692l-15.753846 31.507693v78.76923s0 7.876923 15.753846 15.753846 78.769231 15.753846 78.769231 15.753847l7.876923-1.575385c-17.329231-3.150769-58.289231-7.876923-70.892308-14.178462-15.753846-7.876923-15.753846-15.753846-15.753846-15.753846z" fill="#D7E9FF" p-id="3046">
	</path>
	<path d="M972.012308 494.670769h15.753846l-11.027692-15.753846-233.156924-45.686154-1.575384-1.575384h-15.753846l1.575384 1.575384 244.184616 61.44zM992.492308 526.178462v86.646153s0 12.603077-15.753846 15.753847c-12.603077 3.150769-61.44 6.301538-83.495385 7.876923h4.726154s78.769231-4.726154 94.523077-7.876923 15.753846-15.753846 15.753846-15.753847v-86.646153h-15.753846z" fill="#5C9EFF" p-id="3047">
	</path>
	<path d="M500.972308 431.655385h33.083077l23.630769-91.372308c-9.452308-3.150769-20.48-6.301538-29.932308-7.876923l-26.781538 99.249231zM541.932308 431.655385h7.876923l23.630769-85.07077c-3.150769-1.575385-4.726154-1.575385-7.876923-3.150769l-23.630769 88.221539zM337.132308 326.104615l-28.356923 102.4c6.301538 1.575385 14.178462 1.575385 22.055384 1.575385h11.027693l28.356923-107.126154c-11.027692 1.575385-23.630769 1.575385-33.083077 3.150769zM349.735385 431.655385h7.876923l29.932307-108.701539h-7.876923l-29.932307 108.701539z" fill="#FFFFFF" p-id="3048">
	</path>
	<path d="M897.969231 644.332308c-4.726154 0-7.876923-3.150769-7.876923-7.876923s3.150769-7.876923 7.876923-7.876923c26.781538-1.575385 81.92-4.726154 92.947692-7.876924 9.452308-1.575385 9.452308-7.876923 9.452308-7.876923v-83.495384l-28.356923-42.535385L742.006154 441.107692c-1.575385 0-1.575385 0-3.150769-1.575384s-152.812308-110.276923-297.747693-110.276923c-146.510769 0-233.156923 31.507692-233.156923 31.507692h-4.726154l-47.261538-15.753846c-4.726154-1.575385-6.301538-6.301538-4.726154-9.452308 1.575385-4.726154 6.301538-6.301538 9.452308-4.726154l44.110769 14.178462c15.753846-4.726154 99.249231-31.507692 236.307692-31.507693 144.935385 0 288.295385 100.824615 305.624616 111.852308l231.581538 45.686154c1.575385 0 3.150769 1.575385 4.726154 3.150769l31.507692 47.261539c1.575385 1.575385 1.575385 3.150769 1.575385 4.726154v86.646153c0 6.301538-4.726154 20.48-22.055385 23.63077-15.753846 3.150769-92.947692 7.876923-96.098461 7.876923zM110.276923 644.332308c-7.876923-1.575385-66.166154-7.876923-81.92-17.329231C9.452308 617.550769 7.876923 606.523077 7.876923 604.947692v-78.76923c0-1.575385 0-3.150769 1.575385-3.15077l14.178461-29.932307v-45.686154c0-1.575385 1.575385-4.726154 1.575385-6.301539 1.575385-1.575385 48.836923-48.836923 129.181538-80.344615 4.726154-1.575385 7.876923 0 9.452308 4.726154 1.575385 4.726154 0 7.876923-4.726154 9.452307-66.166154 26.781538-110.276923 64.590769-121.304615 75.618462v44.110769c0 1.575385 0 3.150769-1.575385 3.150769l-14.178461 29.932308v77.193846s1.575385 3.150769 11.027692 9.452308c12.603077 6.301538 58.289231 12.603077 75.618461 15.753846 4.726154 0 7.876923 4.726154 6.301539 9.452308 3.150769 1.575385-1.575385 4.726154-4.726154 4.726154zM708.923077 644.332308H299.323077c-4.726154 0-7.876923-3.150769-7.876923-7.876923s3.150769-7.876923 7.876923-7.876923h409.6c4.726154 0 7.876923 3.150769 7.876923 7.876923s-3.150769 7.876923-7.876923 7.876923z" fill="#116FFF" p-id="3049">
	</path>
	<path d="M519.876923 486.793846h-31.507692c-4.726154 0-7.876923-3.150769-7.876923-7.876923s3.150769-7.876923 7.876923-7.876923h31.507692c4.726154 0 7.876923 3.150769 7.876923 7.876923s-3.150769 7.876923-7.876923 7.876923zM346.584615 486.793846h-31.507692c-4.726154 0-7.876923-3.150769-7.876923-7.876923s3.150769-7.876923 7.876923-7.876923h31.507692c4.726154 0 7.876923 3.150769 7.876923 7.876923s-3.150769 7.876923-7.876923 7.876923zM708.923077 439.532308H330.830769c-81.92 0-116.578462-64.590769-116.578461-67.741539-1.575385-3.150769 0-7.876923 3.150769-11.027692 3.150769-1.575385 7.876923 0 11.027692 3.150769 1.575385 3.150769 29.932308 58.289231 103.975385 58.289231h378.092308c4.726154 0 7.876923 3.150769 7.876923 7.876923s-4.726154 9.452308-9.452308 9.452308zM157.538462 360.763077c-4.726154 0-7.876923-3.150769-7.876924-7.876923v-15.753846c0-4.726154 3.150769-7.876923 7.876924-7.876923s7.876923 3.150769 7.876923 7.876923v15.753846c0 4.726154-3.150769 7.876923-7.876923 7.876923zM63.015385 565.563077H15.753846c-4.726154 0-7.876923-3.150769-7.876923-7.876923s3.150769-7.876923 7.876923-7.876923h47.261539c4.726154 0 7.876923 3.150769 7.876923 7.876923s-3.150769 7.876923-7.876923 7.876923zM31.507692 502.547692c-3.150769 0-6.301538-1.575385-7.876923-4.726154-1.575385-4.726154 0-7.876923 4.726154-9.452307l78.769231-31.507693c4.726154-1.575385 7.876923 0 9.452308 4.726154 1.575385 4.726154 0 7.876923-4.726154 9.452308l-78.769231 31.507692H31.507692z" fill="#116FFF" p-id="3050">
	</path>
	<path d="M110.276923 471.04s-1.575385 0 0 0l-80.344615-15.753846c-4.726154-1.575385-6.301538-4.726154-6.301539-9.452308 1.575385-4.726154 4.726154-7.876923 9.452308-6.301538l78.769231 15.753846c4.726154 1.575385 6.301538 4.726154 6.301538 9.452308-1.575385 3.150769-4.726154 6.301538-7.876923 6.301538zM441.107692 423.778462c-3.150769 0-6.301538-3.150769-7.876923-6.301539l-15.753846-78.769231c-1.575385-4.726154 1.575385-7.876923 6.301539-9.452307 4.726154-1.575385 7.876923 1.575385 9.452307 6.301538l15.753846 78.769231c0 4.726154-1.575385 7.876923-7.876923 9.452308 1.575385 0 0 0 0 0zM1008.246154 534.055385s-1.575385 0 0 0l-96.098462-15.753847c-4.726154 0-7.876923-4.726154-6.301538-9.452307 0-4.726154 4.726154-7.876923 9.452308-6.301539l94.523076 15.753846c4.726154 0 7.876923 4.726154 6.301539 9.452308 0 3.150769-4.726154 6.301538-7.876923 6.301539z" fill="#116FFF" p-id="3051">
	</path>
	<path d="M913.723077 518.301538c-1.575385 0-3.150769 0-3.150769-1.575384l-31.507693-15.753846c-3.150769-1.575385-4.726154-6.301538-3.150769-11.027693 1.575385-3.150769 6.301538-4.726154 11.027692-3.150769l31.507693 15.753846c3.150769 1.575385 4.726154 6.301538 3.150769 11.027693-1.575385 3.150769-4.726154 4.726154-7.876923 4.726153z" fill="#116FFF" p-id="3052">
	</path>
	<path d="M987.766154 502.547692H882.215385c-4.726154 0-7.876923-3.150769-7.876923-7.876923s3.150769-7.876923 7.876923-7.876923h105.550769c4.726154 0 7.876923 3.150769 7.876923 7.876923s-3.150769 7.876923-7.876923 7.876923zM803.446154 628.578462c-4.726154 0-7.876923-3.150769-7.876923-7.876924s3.150769-7.876923 7.876923-7.876923 7.876923 3.150769 7.876923 7.876923-3.150769 7.876923-7.876923 7.876924z" fill="#116FFF" p-id="3053">
	</path>
	<path d="M803.446154 707.347692c-47.261538 0-86.646154-39.384615-86.646154-86.646154s39.384615-86.646154 86.646154-86.646153 86.646154 39.384615 86.646154 86.646153-39.384615 86.646154-86.646154 86.646154z m0-157.538461c-39.384615 0-70.892308 31.507692-70.892308 70.892307s31.507692 70.892308 70.892308 70.892308 70.892308-31.507692 70.892308-70.892308-31.507692-70.892308-70.892308-70.892307z" fill="#116FFF" p-id="3054">
	</path>
	<path d="M803.446154 597.070769c-4.726154 0-7.876923-3.150769-7.876923-7.876923v-15.753846c0-4.726154 3.150769-7.876923 7.876923-7.876923s7.876923 3.150769 7.876923 7.876923v15.753846c0 4.726154-3.150769 7.876923-7.876923 7.876923zM803.446154 675.84c-4.726154 0-7.876923-3.150769-7.876923-7.876923v-15.753846c0-4.726154 3.150769-7.876923 7.876923-7.876923s7.876923 3.150769 7.876923 7.876923v15.753846c0 4.726154-3.150769 7.876923-7.876923 7.876923zM771.938462 628.578462h-15.753847c-4.726154 0-7.876923-3.150769-7.876923-7.876924s3.150769-7.876923 7.876923-7.876923h15.753847c4.726154 0 7.876923 3.150769 7.876923 7.876923s-3.150769 7.876923-7.876923 7.876924zM850.707692 628.578462h-15.753846c-4.726154 0-7.876923-3.150769-7.876923-7.876924s3.150769-7.876923 7.876923-7.876923h15.753846c4.726154 0 7.876923 3.150769 7.876923 7.876923s-3.150769 7.876923-7.876923 7.876924zM781.390769 606.523077c-1.575385 0-4.726154-1.575385-6.301538-3.150769l-11.027693-12.603077c-3.150769-3.150769-3.150769-7.876923 0-11.027693 3.150769-3.150769 7.876923-3.150769 11.027693 0l11.027692 12.603077c3.150769 3.150769 3.150769 7.876923 0 11.027693-1.575385 3.150769-3.150769 3.150769-4.726154 3.150769zM836.529231 661.661538c-1.575385 0-4.726154 0-6.301539-1.575384l-11.027692-11.027692c-3.150769-3.150769-3.150769-7.876923 0-11.027693s7.876923-3.150769 11.027692 0l11.027693 11.027693c3.150769 3.150769 3.150769 7.876923 0 11.027692 0 1.575385-3.150769 1.575385-4.726154 1.575384zM770.363077 661.661538c-1.575385 0-4.726154 0-6.301539-1.575384-3.150769-3.150769-3.150769-7.876923 0-11.027692l11.027693-11.027693c3.150769-3.150769 7.876923-3.150769 11.027692 0s3.150769 7.876923 0 11.027693l-11.027692 11.027692c0 1.575385-3.150769 1.575385-4.726154 1.575384zM825.501538 606.523077c-1.575385 0-3.150769 0-4.726153-1.575385-3.150769-3.150769-3.150769-7.876923 0-11.027692l11.027692-12.603077c3.150769-3.150769 7.876923-3.150769 11.027692 0 3.150769 3.150769 3.150769 7.876923 0 11.027692l-11.027692 12.603077c-1.575385 0-4.726154 1.575385-6.301539 1.575385z" fill="#116FFF" p-id="3055">
	</path>
	<path d="M204.8 628.578462c-4.726154 0-7.876923-3.150769-7.876923-7.876924s3.150769-7.876923 7.876923-7.876923 7.876923 3.150769 7.876923 7.876923-3.150769 7.876923-7.876923 7.876924z" fill="#116FFF" p-id="3056">
	</path>
	<path d="M204.8 707.347692c-48.836923 0-86.646154-37.809231-86.646154-86.646154s37.809231-86.646154 86.646154-86.646153 86.646154 37.809231 86.646154 86.646153-37.809231 86.646154-86.646154 86.646154z m0-157.538461c-39.384615 0-70.892308 31.507692-70.892308 70.892307s31.507692 70.892308 70.892308 70.892308 70.892308-31.507692 70.892308-70.892308-31.507692-70.892308-70.892308-70.892307z" fill="#116FFF" p-id="3057">
	</path>
	<path d="M204.8 597.070769c-4.726154 0-7.876923-3.150769-7.876923-7.876923v-15.753846c0-4.726154 3.150769-7.876923 7.876923-7.876923s7.876923 3.150769 7.876923 7.876923v15.753846c0 4.726154-3.150769 7.876923-7.876923 7.876923zM204.8 675.84c-4.726154 0-7.876923-3.150769-7.876923-7.876923v-15.753846c0-4.726154 3.150769-7.876923 7.876923-7.876923s7.876923 3.150769 7.876923 7.876923v15.753846c0 4.726154-3.150769 7.876923-7.876923 7.876923zM173.292308 628.578462h-15.753846c-4.726154 0-7.876923-3.150769-7.876924-7.876924s3.150769-7.876923 7.876924-7.876923h15.753846c4.726154 0 7.876923 3.150769 7.876923 7.876923s-3.150769 7.876923-7.876923 7.876924zM252.061538 628.578462h-15.753846c-4.726154 0-7.876923-3.150769-7.876923-7.876924s3.150769-7.876923 7.876923-7.876923h15.753846c4.726154 0 7.876923 3.150769 7.876924 7.876923s-3.150769 7.876923-7.876924 7.876924zM182.744615 606.523077c-1.575385 0-4.726154-1.575385-6.301538-3.150769l-11.027692-12.603077c-3.150769-3.150769-3.150769-7.876923 0-11.027693 3.150769-3.150769 7.876923-3.150769 11.027692 0l11.027692 12.603077c3.150769 3.150769 3.150769 7.876923 0 11.027693-1.575385 3.150769-3.150769 3.150769-4.726154 3.150769zM237.883077 661.661538c-1.575385 0-4.726154 0-6.301539-1.575384l-11.027692-11.027692c-3.150769-3.150769-3.150769-7.876923 0-11.027693s7.876923-3.150769 11.027692 0l11.027693 11.027693c3.150769 3.150769 3.150769 7.876923 0 11.027692 0 1.575385-3.150769 1.575385-4.726154 1.575384zM171.716923 661.661538c-1.575385 0-4.726154 0-6.301538-1.575384-3.150769-3.150769-3.150769-7.876923 0-11.027692l11.027692-11.027693c3.150769-3.150769 7.876923-3.150769 11.027692 0s3.150769 7.876923 0 11.027693l-11.027692 11.027692c0 1.575385-3.150769 1.575385-4.726154 1.575384zM226.855385 606.523077c-1.575385 0-3.150769 0-4.726154-1.575385-3.150769-3.150769-3.150769-7.876923 0-11.027692l11.027692-12.603077c3.150769-3.150769 7.876923-3.150769 11.027692 0 3.150769 3.150769 3.150769 7.876923 0 11.027692l-11.027692 12.603077c-1.575385 0-4.726154 1.575385-6.301538 1.575385z" fill="#116FFF" p-id="3058">
	</path>
</svg>
