<?xml version="1.0" standalone="no"?>
<!DOCTYPE svg PUBLIC "-//W3C//DTD SVG 1.1//EN" "http://www.w3.org/Graphics/SVG/1.1/DTD/svg11.dtd">
<svg t="1654050556120" class="icon" viewBox="0 0 1024 1024" version="1.1" xmlns="http://www.w3.org/2000/svg" p-id="1760" xmlns:xlink="http://www.w3.org/1999/xlink" width="32" height="32">
	<defs>
		<style type="text/css">
			@font-face { font-family: feedback-iconfont; src: url("//at.alicdn.com/t/font_1031158_u69w8yhxdu.woff2?t=1630033759944") format("woff2"), url("//at.alicdn.com/t/font_1031158_u69w8yhxdu.woff?t=1630033759944") format("woff"), url("//at.alicdn.com/t/font_1031158_u69w8yhxdu.ttf?t=1630033759944") format("truetype"); }
		</style>
	</defs>
	<path d="M508.093979 379.418947a215.578947 215.578947 0 0 0-94.046316 23.444211A188.631579 188.631579 0 0 0 133.525558 568.589474v227.166315a37.995789 37.995789 0 0 0 25.330526 35.84l50.391579 17.785264v60.092631A37.726316 37.726316 0 0 0 246.435032 946.930526h151.44421a37.726316 37.726316 0 0 0 37.726316-37.726315v-33.684211L507.016084 943.157895a113.448421 113.448421 0 0 1-107.789473 80.842105H246.435032a113.448421 113.448421 0 0 1-113.448421-113.448421v-7.814737a113.448421 113.448421 0 0 1-75.722106-107.789474v-226.357894a264.892632 264.892632 0 0 1 142.012632-234.711579 188.631579 188.631579 0 1 1 246.029474 0 264.892632 264.892632 0 0 1 62.248421 45.541052z m-185.397895-75.722105a113.448421 113.448421 0 1 0-113.448421-113.448421 113.448421 113.448421 0 0 0 113.448421 113.448421z m0 0" fill="#3295FC" p-id="1761">
	</path>
	<path d="M903.950821 758.837895l17.785263-19.402106a178.661053 178.661053 0 0 0 0-235.52 141.743158 141.743158 0 0 0-213.962105 0l-44.463158 49.044211-44.463158-49.044211a141.473684 141.473684 0 0 0-213.962105 0 178.661053 178.661053 0 0 0 0 235.52l17.785263 19.402106 240.64 225.818947z m-240.909474 142.551579l-208.572631-195.637895-17.51579-19.132632a115.065263 115.065263 0 0 1 0-149.288421 73.566316 73.566316 0 0 1 113.717895 0l112.101053 96.741053 112.101052-96.741053a73.835789 73.835789 0 0 1 113.717895 0 115.334737 115.334737 0 0 1 0 149.288421l-17.515789 19.132632z" fill="#F8AD4B" p-id="1762">
	</path>
</svg>
