<?xml version="1.0" standalone="no"?>
<!DOCTYPE svg PUBLIC "-//W3C//DTD SVG 1.1//EN" "http://www.w3.org/Graphics/SVG/1.1/DTD/svg11.dtd">
<svg t="1653493716321" class="icon" viewBox="0 0 1024 1024" version="1.1" xmlns="http://www.w3.org/2000/svg" p-id="3545" xmlns:xlink="http://www.w3.org/1999/xlink" width="64" height="64">
	<defs>
		<style type="text/css">
			@font-face { font-family: feedback-iconfont; src: url("//at.alicdn.com/t/font_1031158_u69w8yhxdu.woff2?t=1630033759944") format("woff2"), url("//at.alicdn.com/t/font_1031158_u69w8yhxdu.woff?t=1630033759944") format("woff"), url("//at.alicdn.com/t/font_1031158_u69w8yhxdu.ttf?t=1630033759944") format("truetype"); }
		</style>
	</defs>
	<path d="M512 173c45.9 0 90.4 9 132.3 26.7 40.5 17.1 76.8 41.6 108.1 72.9 31.2 31.2 55.8 67.6 72.9 108.1C843 422.6 852 467.1 852 513s-9 90.4-26.7 132.3c-17.1 40.5-41.6 76.8-72.9 108.1-31.2 31.2-67.6 55.8-108.1 72.9C602.4 844 557.9 853 512 853s-90.4-9-132.3-26.7c-40.5-17.1-76.8-41.6-108.1-72.9-31.2-31.2-55.8-67.6-72.9-108.1C181 603.4 172 558.9 172 513s9-90.4 26.7-132.3c17.1-40.5 41.6-76.8 72.9-108.1 31.2-31.2 67.6-55.8 108.1-72.9C421.6 182 466.1 173 512 173m0-60c-220.9 0-400 179.1-400 400s179.1 400 400 400 400-179.1 400-400-179.1-400-400-400z" fill="#1296db" p-id="3546">
	</path>
	<path d="M672 483H352c-16.6 0-30 13.4-30 30s13.4 30 30 30h320c16.6 0 30-13.4 30-30s-13.4-30-30-30z" fill="#1296db" p-id="3547">
	</path>
</svg>
