<?xml version="1.0" standalone="no"?>
<!DOCTYPE svg PUBLIC "-//W3C//DTD SVG 1.1//EN" "http://www.w3.org/Graphics/SVG/1.1/DTD/svg11.dtd">
<svg t="1653204479245" class="icon" viewBox="0 0 1024 1024" version="1.1" xmlns="http://www.w3.org/2000/svg" p-id="2029" xmlns:xlink="http://www.w3.org/1999/xlink" width="32" height="32">
    <defs>
        <style type="text/css">@font-face { font-family: feedback-iconfont; src: url("//at.alicdn.com/t/font_1031158_u69w8yhxdu.woff2?t=1630033759944") format("woff2"), url("//at.alicdn.com/t/font_1031158_u69w8yhxdu.woff?t=1630033759944") format("woff"), url("//at.alicdn.com/t/font_1031158_u69w8yhxdu.ttf?t=1630033759944") format("truetype"); }
</style>
    </defs>
    <path d="M128 896h768v42.667H128V896z m384-18.133s-167.936-103.958-179.413-112c-33.558-23.467-59.691-44.075-77.014-61.44A361.536 361.536 0 0 1 149.333 448c0-200.299 162.368-362.667 362.667-362.667S874.667 247.701 874.667 448c0 97.493-38.656 188.885-106.24 256.427-17.323 17.365-43.456 37.973-77.014 61.44-11.477 8.042-179.413 112-179.413 112zM666.965 730.9c31.68-22.144 56.107-41.429 71.318-56.618A318.87 318.87 0 0 0 832 448c0-176.725-143.275-320-320-320S192 271.275 192 448c0 86.037 34.09 166.635 93.717 226.283 15.211 15.189 39.638 34.474 71.318 56.618 11.157 7.808 145.557 92.331 154.453 97.494 9.92-5.163 144.32-89.686 155.477-97.494zM512 618.667a170.667 170.667 0 1 1 0-341.334 170.667 170.667 0 0 1 0 341.334zM512 576a128 128 0 1 0 0-256 128 128 0 0 0 0 256z" p-id="2030" fill="#d81e06"></path>
</svg>